PathFileType	4	(X/Y/Z)	C:/Users/opensim2020/Desktop/walking_exp_matlab/subject01_walking09_straight_02.trc	
DataRate	CameraRate	NumFrames	NumMarkers	Units	OrigDataRate	OrigDataStartFrame	OrigNumFrames	
100.00	100.00	5	43	mm	100.00	1936	362	
Frame#	Time	LFHD			RFHD			LBHD			RBHD			C7			T10			CLAV			STRN			RBAK			LSHO			LUPA			LELB			LFRM			LWRA			LWRB			LFIN			RSHO			RUPA			RELB			RFRM			RWRA			RWRB			RFIN			LASI			RASI			LPSI			RPSI			LTHI			LKNE			LTIB			LANK			LHEE			LTOE			RTHI			RKNE			RTIB			RANK			RHEE			RTOE			*39			*40			*41			*42			
		X1	Y1	Z1	X2	Y2	Z2	X3	Y3	Z3	X4	Y4	Z4	X5	Y5	Z5	X6	Y6	Z6	X7	Y7	Z7	X8	Y8	Z8	X9	Y9	Z9	X10	Y10	Z10	X11	Y11	Z11	X12	Y12	Z12	X13	Y13	Z13	X14	Y14	Z14	X15	Y15	Z15	X16	Y16	Z16	X17	Y17	Z17	X18	Y18	Z18	X19	Y19	Z19	X20	Y20	Z20	X21	Y21	Z21	X22	Y22	Z22	X23	Y23	Z23	X24	Y24	Z24	X25	Y25	Z25	X26	Y26	Z26	X27	Y27	Z27	X28	Y28	Z28	X29	Y29	Z29	X30	Y30	Z30	X31	Y31	Z31	X32	Y32	Z32	X33	Y33	Z33	X34	Y34	Z34	X35	Y35	Z35	X36	Y36	Z36	X37	Y37	Z37	X38	Y38	Z38	X39	Y39	Z39	X40	Y40	Z40	X41	Y41	Z41	X42	Y42	Z42	X43	Y43	Z43	

46	0.450	1452.05066	1040.66858	1677.91357	1341.90332	1014.79358	1683.76318	1430.52039	1152.89124	1628.17566	1313.70166	1129.65002	1633.35999	1392.74866	1179.38574	1432.30701	1381.28870	1193.81909	1136.21948	1396.89575	1032.18140	1374.75732	1405.66553	976.38611	1224.20532	1313.75061	1217.96155	1232.95605	1555.93311	1099.47827	1400.64624	1642.04541	1113.19421	1217.34082	1646.79272	1109.28491	1063.11646	1672.02588	1038.58948	971.86414	1656.78052	924.06378	892.79517	1676.72717	975.04388	867.62683	1691.12903	906.65057	820.27264	1243.04309	1093.11218	1397.98096	1142.69604	1138.62549	1192.57800	1144.44812	1132.71094	1068.29004	1117.03442	1104.67969	951.29175	1141.34900	1026.72974	834.04553	1099.53918	1069.43164	835.05713	1104.96838	1032.46863	756.54022	1501.56812	1019.90015	934.74561	1286.70508	995.51569	943.62738	1428.65686	1199.98572	944.52185	1284.19604	1182.08630	952.08966	1562.15417	1058.16724	598.80408	1556.71680	1078.75928	466.15677	1560.68896	1229.20410	355.92758	1508.16443	1386.33240	202.61086	1449.28430	1426.98181	217.51292	1510.49097	1335.33228	59.12918	1230.97949	1013.00610	611.00201	1263.34204	987.84894	455.72205	1258.11890	1023.92053	282.33282	1310.61023	1030.17090	78.33712	1357.36890	1080.83960	40.14532	1322.44812	889.03625	41.67060	1362.34253	1029.93213	1717.14624	-3101.81714	1973.07410	1023.45465	-3140.75024	2012.54626	1022.01074			 
47	0.460	1451.14233	1033.79041	1678.14417	1341.14722	1007.69366	1684.28552	1429.74646	1145.98767	1628.44885	1312.61292	1122.64844	1633.60950	1391.71936	1172.48254	1432.67505	1379.75317	1187.23389	1136.56152	1395.88025	1025.35181	1374.85974	1404.40479	969.69507	1224.18384	1312.17371	1211.31665	1233.49878	1554.91321	1092.57507	1400.85339	1640.28784	1107.63098	1217.32239	1644.85620	1105.08704	1063.07849	1670.03955	1035.47302	970.87616	1655.54492	921.81482	890.76233	1675.41528	973.22797	866.25201	1689.97058	905.46606	818.14154	1242.04517	1086.02148	1398.39575	1140.84070	1130.39819	1193.21252	1142.40784	1124.15015	1068.80432	1115.07996	1095.01123	951.99921	1140.00098	1015.93951	835.55786	1097.83545	1058.67273	836.21472	1103.50964	1020.64264	758.18304	1500.32300	1013.45331	934.91296	1285.14185	989.40894	943.68518	1427.77502	1193.64661	943.72571	1283.36438	1176.27551	951.66754	1561.79773	1046.16870	599.30988	1556.91455	1064.04187	466.70477	1560.49634	1214.86096	357.92007	1507.04944	1374.67090	209.08022	1447.95532	1414.68176	224.80765	1511.06873	1327.80286	63.18582	1230.23450	1009.12799	611.12939	1262.74927	984.56952	455.19299	1257.99304	1021.97247	281.99298	1310.68579	1030.02087	78.24550	1357.42737	1080.80798	40.20294	1322.43677	888.88654	41.57003	1361.52820	1023.12140	1717.43152	-3101.88989	1973.20923	1023.30334	-3140.66382	2012.44958	1021.97711			 
48	0.470	1450.30249	1026.82458	1678.30750	1340.24268	1001.12842	1684.42456	1428.99536	1139.08008	1628.65991	1311.97754	1115.88098	1633.84338	1390.72168	1165.68213	1433.07324	1378.32251	1180.78369	1136.94556	1394.81396	1018.55505	1374.85583	1403.44519	963.19720	1224.23438	1310.66650	1204.74097	1234.11023	1553.93420	1085.68506	1401.09021	1638.67273	1102.28210	1217.40137	1642.89551	1101.14954	1063.17444	1668.32019	1032.62769	970.24286	1654.36450	919.85242	888.82202	1674.04150	971.57043	864.90509	1688.84912	904.49176	815.98358	1240.96228	1079.02124	1398.80798	1139.11584	1122.18555	1194.01111	1140.24744	1115.75171	1069.45044	1113.20593	1085.15576	952.81207	1138.72839	1005.27032	837.19891	1097.08472	1046.30444	837.23541	1102.10217	1008.63953	759.85944	1499.12524	1006.91394	934.96460	1283.62622	983.33386	943.75366	1427.09302	1187.50122	943.12372	1282.73279	1170.64673	951.35071	1561.78345	1034.28040	600.28046	1556.87720	1049.40332	467.45166	1560.01147	1200.29834	359.62378	1505.88367	1362.24561	215.23732	1446.31311	1401.86426	231.17485	1512.01111	1318.85083	67.33517	1229.40979	1005.24908	610.82239	1262.11487	981.24884	454.93661	1258.42456	1019.61279	281.91168	1310.72705	1029.92798	78.26613	1357.52637	1080.83875	40.05276	1322.44690	888.82068	41.49142	1360.71948	1016.25488	1717.68665	-3101.90698	1973.19141	1023.26111	-3140.73950	2012.56531	1022.09393			 
49	0.480	1449.63733	1019.87781	1678.47034	1339.53503	994.21008	1684.72961	1428.27783	1132.13721	1628.88623	1311.22424	1109.00269	1634.24780	1389.73816	1158.91602	1433.40381	1377.01270	1174.45093	1137.33130	1394.03174	1011.74622	1375.05359	1402.30798	956.72192	1224.18115	1309.29944	1198.24658	1234.65125	1552.98950	1078.82446	1401.38647	1637.16504	1096.97766	1217.48145	1640.96155	1097.40466	1063.38599	1666.64136	1030.02258	969.71027	1653.11951	918.10889	887.00531	1672.29150	970.20825	863.58722	1687.64600	903.80170	813.96503	1240.22522	1072.17688	1399.33765	1137.39478	1114.12463	1194.85693	1137.94373	1107.40881	1070.21289	1111.32922	1075.48718	953.82471	1137.68494	994.55725	839.06708	1095.48901	1035.36572	838.69403	1100.70532	996.61432	761.88202	1498.18884	1000.57617	935.21484	1282.14612	977.52606	943.91772	1426.58423	1181.14417	942.66614	1282.28625	1165.04053	951.20142	1561.61560	1022.56854	601.33160	1556.82825	1034.75183	468.44409	1559.54016	1185.67883	361.39374	1504.24060	1349.71851	220.31012	1444.37671	1388.90344	236.21376	1513.25696	1308.40283	71.95905	1228.74963	1001.01593	610.55872	1261.68555	977.86145	454.38272	1258.50134	1017.42725	281.87137	1310.77161	1029.80139	78.17493	1357.52844	1080.81580	40.31399	1322.49634	888.80585	41.50216	1360.04016	1009.29053	1717.93176	-3101.86035	1973.02405	1023.45441	-3140.63599	2012.41284	1021.86115			 
50	0.490	1448.96338	1012.87280	1678.55420	1338.88696	986.89935	1684.96570	1427.70105	1125.20959	1629.10950	1310.56067	1102.12317	1634.64124	1388.82178	1152.24304	1433.79651	1375.84961	1168.25024	1137.73352	1392.96680	1005.08264	1375.06714	1401.25806	950.43036	1224.07971	1308.09851	1191.81726	1235.25867	1552.03711	1072.04260	1401.62012	1635.87341	1091.89783	1217.70581	1639.09570	1093.91040	1063.65979	1664.94275	1027.64136	969.18024	1651.90295	916.57135	885.26025	1670.94165	969.07983	862.46136	1686.50488	903.37872	812.06830	1239.44495	1065.51025	1399.94971	1135.79614	1106.23206	1195.76489	1136.08264	1099.26990	1071.02161	1109.68811	1065.89270	954.98029	1136.71375	983.93945	841.13129	1093.99792	1024.45410	840.38995	1099.47620	984.62177	764.18719	1496.84741	993.35706	935.58105	1280.64038	971.87683	944.18213	1426.17542	1175.06104	942.58545	1281.92761	1159.48401	951.15723	1561.23181	1010.94507	602.35712	1556.70288	1020.22906	469.56757	1558.80603	1171.04956	363.09244	1502.55334	1336.82117	224.92285	1442.13147	1375.95276	239.98001	1514.61145	1295.87439	76.45800	1228.05176	996.56085	610.10303	1261.19934	974.50000	453.89969	1258.58582	1015.03979	281.76144	1310.74646	1029.68018	78.10134	1357.56201	1080.77759	40.35131	1322.54126	888.74945	41.47345	1359.41492	1002.33466	1718.09875	-3101.98657	1973.07837	1023.58435	-3140.79541	2012.46521	1021.98468			 
